<svg xmlns="http://www.w3.org/2000/svg" width="39" height="39" viewBox="0 0 39 39"><defs><style>.a{fill:#f60261;}.b,.c{stroke:none;}.c{fill:#190232;}</style></defs><g transform="translate(2 2)"><g class="a" transform="translate(0 0)"><path class="b" d="M 17.5002384185791 36.00015640258789 C 14.16081809997559 36.00015640258789 11.0357780456543 35.16464996337891 8.211917877197266 33.51682662963867 C 5.392578125 31.87120819091797 3.128798246383667 29.60746765136719 1.483368158340454 26.78841781616211 C -0.1645018458366394 23.9639778137207 -1.000001907348633 20.8389778137207 -1.000001907348633 17.50007820129395 C -1.000001907348633 14.1602783203125 -0.1644018590450287 11.03517818450928 1.483598113059998 8.21159839630127 C 3.129208087921143 5.392148017883301 5.393038272857666 3.128428220748901 8.212238311767578 1.483318209648132 C 11.03557777404785 -0.1644818037748337 14.16064834594727 -1.000001788139343 17.50055885314941 -1.000001788139343 C 20.83991813659668 -1.000001788139343 23.96492767333984 -0.1644918024539948 26.78879737854004 1.48330819606781 C 29.60794830322266 3.128758192062378 31.87170791625977 5.392448425292969 33.51725769042969 8.21155834197998 C 35.16479873657227 11.03542804718018 36.00007629394531 14.16047859191895 36 17.50010871887207 C 36 20.83959770202637 35.16460800170898 23.96460914611816 33.51701736450195 26.78828811645508 C 31.87110900878906 29.60831832885742 29.60738754272461 31.8720874786377 26.7887077331543 33.51683807373047 C 23.96503829956055 35.16463851928711 20.83993721008301 36.00015640258789 17.5002384185791 36.00015640258789 Z M 9.585101127624512 28.99033164978027 C 11.94810676574707 30.62235641479492 14.60503101348877 31.44825744628906 17.50031852722168 31.44825744628906 C 19.10060882568359 31.44806861877441 20.67855644226074 31.17305946350098 22.20153427124023 30.6298885345459 C 21.62068557739258 27.58637046813965 20.73284149169922 24.42180442810059 19.55572700500488 21.19942283630371 C 19.51642227172852 21.21467399597168 19.47614479064941 21.23031616210938 19.43484878540039 21.24636840820313 C 19.06473731994629 21.38969802856445 18.32415771484375 21.74993896484375 17.23247909545898 22.31755828857422 C 16.15018844604492 22.88124847412109 15.13551807403564 23.48849868774414 14.21724796295166 24.12210845947266 C 13.32159805297852 24.7407283782959 12.3690185546875 25.57458877563477 11.38636779785156 26.60027885437012 C 10.6474666595459 27.37142944335938 10.04389762878418 28.17262077331543 9.585101127624512 28.99033164978027 Z M 24.30504035949707 20.04861640930176 C 25.24214172363281 22.76803779602051 25.99112510681152 25.47453117370605 26.54081344604492 28.12709617614746 C 27.57736206054688 27.24315643310547 28.4814453125 26.20779418945313 29.2392578125 25.03519821166992 C 30.11993408203125 23.67206192016602 30.7463264465332 22.18252563476563 31.10694313049316 20.59651374816895 C 29.40131187438965 20.17934226989746 27.70945739746094 19.96824836730957 26.06576728820801 19.96824836730957 C 25.47848129272461 19.96824836730957 24.88965797424316 19.99518585205078 24.30504035949707 20.04861640930176 Z M 3.561219930648804 18.01388549804688 C 3.616801261901855 19.58126068115234 3.927228212356567 21.0965690612793 4.486088275909424 22.52521896362305 C 4.940220355987549 23.68607139587402 5.536212921142578 24.76865768432617 6.264356136322021 25.75720405578613 C 6.907098293304443 24.79123878479004 7.645125865936279 23.86753463745117 8.468748092651367 22.99915885925293 C 9.628058433532715 21.77619743347168 10.77525806427002 20.77493858337402 11.87828826904297 20.02337837219238 C 12.9433479309082 19.29775810241699 13.97030830383301 18.66034889221191 14.9306583404541 18.12879753112793 C 15.91879844665527 17.58258819580078 16.70562744140625 17.20419883728027 17.33656883239746 16.97172737121582 L 17.34364891052246 16.96911811828613 L 17.35076904296875 16.96661758422852 L 17.74839019775391 16.8268985748291 C 17.63686370849609 16.59058570861816 17.51829719543457 16.34583282470703 17.39290618896484 16.09309387207031 C 13.10376262664795 17.29286766052246 8.459670066833496 17.93773651123047 3.561219930648804 18.01388549804688 Z M 25.4066276550293 15.65725803375244 C 25.94745826721191 15.65725803375244 26.49131774902344 15.66907787322998 27.02309799194336 15.69237804412842 C 27.55914878845215 15.71624851226807 28.06279754638672 15.74778842926025 28.52076721191406 15.7861385345459 C 28.98593902587891 15.82487773895264 29.42913818359375 15.8679780960083 29.83761787414551 15.91420841217041 C 30.25860786437988 15.96199798583984 30.64270782470703 16.01404762268066 30.97958755493164 16.06894874572754 C 31.12409019470215 16.09245681762695 31.25903129577637 16.11454010009766 31.38436317443848 16.13513565063477 C 31.1609992980957 13.75179481506348 30.36736488342285 11.56446933746338 29.01566123962402 9.607292175292969 C 28.85280609130859 9.776091575622559 28.62436103820801 10.00344467163086 28.29668807983398 10.31626796722412 C 27.7636890411377 10.82535839080811 27.19068908691406 11.31377792358398 26.59377861022949 11.76779842376709 C 25.99403762817383 12.22326850891113 25.19381904602051 12.74406814575195 24.21474838256836 13.31617832183838 C 23.52447509765625 13.7191686630249 22.80170440673828 14.09296607971191 22.05648422241211 14.4326639175415 C 22.2612190246582 14.87264156341553 22.45213508605957 15.28806304931641 22.62727737426758 15.67471790313721 L 22.65056800842285 15.7261381149292 L 22.66792869567871 15.77984809875488 C 22.66797637939453 15.77999877929688 22.66802597045898 15.78015232086182 22.66807556152344 15.78030395507813 C 23.00254440307617 15.74702167510986 23.34120178222656 15.72153854370117 23.68097877502441 15.7041482925415 C 24.28362846374512 15.67303848266602 24.8643684387207 15.65725803375244 25.4066276550293 15.65725803375244 Z M 10.81886577606201 5.260768890380859 C 9.181109428405762 6.151978969573975 7.755011081695557 7.355605125427246 6.57161808013916 8.846978187561035 C 5.481200695037842 10.22147750854492 4.675080299377441 11.75074195861816 4.166491031646729 13.40680694580078 C 7.808627128601074 13.31307315826416 11.4939079284668 12.82521438598633 15.15638065338135 11.95195770263672 C 13.73097991943359 9.501364707946777 12.27672290802002 7.257953643798828 10.81886577606201 5.260768890380859 Z M 15.73043251037598 3.671602487564087 C 17.23034286499023 5.737447261810303 18.6690559387207 8.003022193908691 20.02365112304688 10.43268775939941 C 20.72765350341797 10.13422679901123 21.4044132232666 9.801835060119629 22.04365730285645 9.440288543701172 C 22.92558860778809 8.941648483276367 23.62749862670898 8.49516773223877 24.13001823425293 8.113187789916992 C 24.63000869750977 7.732948303222656 25.09790802001953 7.325828075408936 25.52052879333496 6.903278350830078 C 25.72220230102539 6.701425075531006 25.87061882019043 6.548243522644043 25.97950553894043 6.432813167572021 C 23.5112419128418 4.496062278747559 20.72796821594238 3.552138090133667 17.50031852722168 3.552138090133667 C 16.92022514343262 3.552138090133667 16.32860565185547 3.592163801193237 15.73043251037598 3.671602487564087 Z"/><path class="c" d="M 17.50055885314941 0 C 14.3255672454834 0 11.39735794067383 0.7822380065917969 8.716238021850586 2.347019195556641 C 6.034957885742188 3.911647796630859 3.912208557128906 6.034399032592773 2.347259521484375 8.715677261352539 C 0.7822380065917969 11.39711761474609 0 14.3253288269043 0 17.50007820129395 C 0 20.67498779296875 0.7824668884277344 23.60271835327148 2.347019195556641 26.28431701660156 C 3.911888122558594 28.96534729003906 6.034637451171875 31.08809852600098 8.715917587280273 32.65312957763672 C 11.39735794067383 34.21783828735352 14.3253288269043 35.00015640258789 17.5002384185791 35.00015640258789 C 20.67514801025391 35.00015640258789 23.60343933105469 34.21783828735352 26.28471755981445 32.65312957763672 C 28.96582794189453 31.08865737915039 31.08850860595703 28.96534729003906 32.65328979492188 26.28431701660156 C 34.21783828735352 23.60295867919922 35 20.67482757568359 35 17.50007820129395 C 35.00007629394531 14.32500839233398 34.21783828735352 11.39670753479004 32.65361785888672 8.715677261352539 C 31.08865737915039 6.034637451171875 28.96590805053711 3.911888122558594 26.28479766845703 2.347019195556641 C 23.60319900512695 0.7822380065917969 20.67586898803711 0 17.50055885314941 0 M 19.57358932495117 11.68954849243164 C 17.82674789428711 8.468738555908203 15.95842742919922 5.567268371582031 13.96832847595215 2.984958648681641 C 15.16861724853516 2.696357727050781 16.34583854675293 2.552139282226563 17.50031852722168 2.552139282226563 C 21.26750946044922 2.552139282226563 24.55646896362305 3.797758102416992 27.36672782897949 6.288917541503906 L 27.08187866210938 6.687417984008789 C 26.96798706054688 6.847208023071289 26.68313789367676 7.154478073120117 26.22756767272949 7.610448837280273 C 25.77191925048828 8.066007614135742 25.27437782287598 8.499227523803711 24.73516845703125 8.909297943115234 C 24.19547843933105 9.319538116455078 23.46296691894531 9.786588668823242 22.53595733642578 10.31071853637695 C 21.60926818847656 10.8348388671875 20.62190818786621 11.29463768005371 19.57358932495117 11.68954849243164 M 2.874183654785156 14.42348861694336 C 2.873065948486328 14.42348861694336 2.872589111328125 14.42348861694336 2.871467590332031 14.42348861694336 C 3.357837677001953 12.12978744506836 4.330028533935547 10.06353759765625 5.78826904296875 8.225399017333984 C 7.24650764465332 6.38764762878418 9.023597717285156 4.974658966064453 11.12016868591309 3.987388610839844 C 13.00379753112793 6.493877410888672 14.85694885253906 9.365188598632813 16.68000793457031 12.60075759887695 C 12.06307601928711 13.81575202941895 7.460811614990234 14.42348861694336 2.874183654785156 14.42348861694336 M 32.4484977722168 17.34052848815918 L 32.22047805786133 17.2950382232666 C 32.06858825683594 17.26486778259277 31.87847900390625 17.23038864135742 31.65069770812988 17.1926383972168 C 31.42291831970215 17.15488815307617 31.14540863037109 17.10907745361328 30.8187370300293 17.05592727661133 C 30.4925479888916 17.00276756286621 30.12740707397461 16.95352745056152 29.72515869140625 16.90786743164063 C 29.32250785827637 16.8622989654541 28.89344787597656 16.82063865661621 28.43731880187988 16.78264808654785 C 27.98175811767578 16.74449729919434 27.49553871154785 16.71440887451172 26.97931861877441 16.6914176940918 C 26.46221923828125 16.66875839233398 25.93841934204102 16.65725898742676 25.4066276550293 16.65725898742676 C 24.87539672851563 16.65725898742676 24.3166389465332 16.67266845703125 23.73209762573242 16.70283889770508 C 23.14739799499512 16.73276901245117 22.58168792724609 16.78655815124512 22.03489685058594 16.86237907409668 C 21.9890079498291 16.78631782531738 21.93217849731445 16.66093826293945 21.86385726928711 16.48614883422852 C 21.79562759399414 16.31159782409668 21.74581909179688 16.17846870422363 21.71636772155762 16.08732795715332 C 21.4273681640625 15.44931793212891 21.09303855895996 14.72765731811523 20.71289825439453 13.92274856567383 C 21.76114845275879 13.49711799621582 22.76022720336914 13.00738906860352 23.71022796630859 12.45277786254883 C 24.65934753417969 11.89816856384277 25.41835784912109 11.40477752685547 25.98837852478027 10.97187805175781 C 26.55814743041992 10.53849792480469 27.09735870361328 10.07893753051758 27.60615921020508 9.592967987060547 C 28.11527824401855 9.106918334960938 28.44521713256836 8.769067764282227 28.59765815734863 8.579118728637695 C 28.74977874755859 8.388847351074219 28.89399719238281 8.202888488769531 29.03055763244629 8.020837783813477 L 29.05346870422363 7.997848510742188 C 31.27126884460449 10.70186805725098 32.40348815917969 13.81588745117188 32.4484977722168 17.34052848815918 M 6.380147933959961 27.48076820373535 C 5.164857864379883 26.12884902954102 4.22315788269043 24.59796905517578 3.554807662963867 22.88951873779297 C 2.886306762695313 21.18059921264648 2.552139282226563 19.38394927978516 2.552139282226563 17.50007820129395 C 2.552139282226563 17.28729820251465 2.559959411621094 17.12775802612305 2.574958801269531 17.02152824401855 C 8.07438850402832 17.02152824401855 13.18632888793945 16.31534767150879 17.91070747375488 14.90228843688965 C 18.39691734313965 15.84405899047852 18.79949760437012 16.68718910217285 19.11849784851074 17.43175888061523 C 19.05696868896484 17.46208763122559 18.95895767211914 17.4960880279541 18.82215881347656 17.53415870666504 C 18.68496894836426 17.57214736938477 18.58647727966309 17.59848785400391 18.52517890930176 17.61388778686523 L 17.68228721618652 17.91006851196289 C 17.10476875305176 18.12284851074219 16.34879875183105 18.48750877380371 15.41491889953613 19.00372695922852 C 14.48079872131348 19.52074813842773 13.4896183013916 20.13561820983887 12.44136810302734 20.84977722167969 C 11.39312744140625 21.56400680541992 10.31071853637695 22.50961685180664 9.194307327270508 23.68731689453125 C 8.077747344970703 24.86454772949219 7.139719009399414 26.12884902954102 6.380147933959961 27.48076820373535 M 25.86370849609375 29.8961181640625 C 25.24037933349609 26.40227890014648 24.26866912841797 22.83955764770508 22.9466667175293 19.20916748046875 C 23.97660827636719 19.04854583740234 25.01644134521484 18.96825218200684 26.06576919555664 18.96825218200684 C 28.09637451171875 18.96825218200684 30.16308975219727 19.26881790161133 32.2663688659668 19.86952781677246 C 31.93203735351563 21.93553924560547 31.20279884338379 23.8387279510498 30.07912826538086 25.57797813415527 C 28.95489883422852 27.31755828857422 27.54941749572754 28.75719833374023 25.86370849609375 29.8961181640625 M 17.50031852722168 32.44825744628906 C 13.94549751281738 32.44825744628906 10.77058792114258 31.30877876281738 7.975347518920898 29.03031921386719 L 8.317178726196289 29.28108787536621 C 8.848808288574219 28.11104774475098 9.631038665771484 26.98681831359863 10.66427803039551 25.90847778320313 C 11.69736862182617 24.83014678955078 12.69229888916016 23.96003723144531 13.64931869506836 23.29903793334961 C 14.60633850097656 22.63867950439453 15.64684867858887 22.01589775085449 16.77115821838379 21.43031692504883 C 17.89522743225098 20.84585952758789 18.66197776794434 20.47329711914063 19.07252883911133 20.3143196105957 C 19.48275756835938 20.15484809875488 19.80942916870117 20.02922821044922 20.05245780944824 19.93792724609375 L 20.09778785705566 19.91501808166504 L 20.1436767578125 19.91501808166504 C 21.63192749023438 23.81908798217773 22.6958179473877 27.6019287109375 23.33359909057617 31.26296806335449 C 21.44987869262695 32.05326843261719 19.5057487487793 32.44801712036133 17.50031852722168 32.44825744628906 M 17.50055885314941 -2 C 21.01933860778809 -2 24.31391906738281 -1.118640899658203 27.29278755187988 0.6196098327636719 C 30.2626781463623 2.35302734375 32.64739990234375 4.737688064575195 34.38088989257813 7.707448959350586 C 36.11895751953125 10.68644905090332 37.00008773803711 13.9810676574707 37 17.5001277923584 C 37 21.01903915405273 36.11874771118164 24.31360816955566 34.38072967529297 27.29226875305176 C 32.64680862426758 30.2630786895752 30.26209831237793 32.64785766601563 27.29269790649414 34.38054656982422 C 24.31406784057617 36.11877822875977 21.01938819885254 37.00016021728516 17.5002384185791 37.00016021728516 C 13.98136901855469 37.00016021728516 10.68675804138184 36.11878967285156 7.707918167114258 34.38053894042969 C 4.737838745117188 32.64693832397461 2.35308837890625 30.2622184753418 0.6197166442871094 27.29250717163086 C -1.118659973144531 24.31296920776367 -2 21.01841735839844 -2 17.50007820129395 C -2 13.98082733154297 -1.118522644042969 10.68613815307617 0.6199378967285156 7.707529067993164 C 2.353488922119141 4.73737907409668 4.73832893371582 2.352668762207031 7.708229064941406 0.6196174621582031 C 10.68653869628906 -1.118610382080078 13.98118782043457 -2 17.50055885314941 -2 Z M 24.43755722045898 6.55572509765625 C 22.40226936340332 5.222650527954102 20.13940048217773 4.564519882202148 17.57294654846191 4.552310943603516 C 18.5626106262207 6.002439498901367 19.52207565307617 7.537014007568359 20.44490242004395 9.146087646484375 C 20.82496643066406 8.964113235473633 21.19440650939941 8.771751403808594 21.55135726928711 8.569868087768555 C 22.39425849914551 8.093297958374023 23.05815887451172 7.671848297119141 23.52485847473145 7.31707763671875 C 23.84487724304199 7.073705673217773 24.15048217773438 6.818727493286133 24.43755722045898 6.55572509765625 Z M 13.59593200683594 11.278564453125 C 12.58588600158691 9.601287841796875 11.56424713134766 8.032476425170898 10.53971481323242 6.585615158081055 C 9.334320068359375 7.353488922119141 8.267282485961914 8.318807601928711 7.354969024658203 9.468557357788086 C 6.647216796875 10.36069107055664 6.068405151367188 11.32323837280273 5.622848510742188 12.3470287322998 C 8.26984977722168 12.20035934448242 10.93640518188477 11.8430061340332 13.59593200683594 11.278564453125 Z M 30.21232986450195 14.95142364501953 C 29.9585075378418 13.6156063079834 29.50009346008301 12.36575698852539 28.83159255981445 11.1866512298584 C 28.31645965576172 11.66835403442383 27.76806831359863 12.13101387023926 27.19916915893555 12.56372833251953 C 26.55802917480469 13.05063819885254 25.74722862243652 13.57889747619629 24.71926879882813 14.17957878112793 C 24.41368865966797 14.35797691345215 24.1021728515625 14.53079986572266 23.78537178039551 14.69774055480957 C 24.34933662414551 14.67087554931641 24.89419364929199 14.65725898742676 25.4066276550293 14.65725898742676 C 25.96199798583984 14.65725898742676 26.52057838439941 14.66939735412598 27.06687927246094 14.69333839416504 C 27.6165885925293 14.71781730651855 28.13333892822266 14.75018882751465 28.60421752929688 14.78962898254395 C 29.07872772216797 14.82914733886719 29.53183746337891 14.87321853637695 29.9500675201416 14.92055892944336 C 30.03906059265137 14.93066024780273 30.12649536132813 14.94095039367676 30.21232986450195 14.95142364501953 Z M 6.300939559936523 23.99289321899414 C 6.748741149902344 23.41345977783203 7.230243682861328 22.85181427001953 7.743198394775391 22.31098937988281 C 8.951358795166016 21.03650856018066 10.15327835083008 19.98866844177246 11.31520843505859 19.19696807861328 C 11.87270545959473 18.81715393066406 12.4205265045166 18.46065330505371 12.95476341247559 18.12989044189453 C 10.28318977355957 18.60866165161133 7.502927780151367 18.89582824707031 4.635236740112305 18.98847007751465 C 4.758995056152344 20.0843677520752 5.020593643188477 21.14661026000977 5.417367935180664 22.16091918945313 C 5.666624069213867 22.79806518554688 5.961750030517578 23.40970039367676 6.300939559936523 23.99289321899414 Z M 29.87054824829102 21.34785461425781 C 28.5826358795166 21.0955924987793 27.30885124206543 20.96824836730957 26.06576919555664 20.96824836730957 C 25.93333625793457 20.96824836730957 25.80088043212891 20.96969223022461 25.66836166381836 20.97257232666016 C 26.23232650756836 22.71239471435547 26.71971130371094 24.44538497924805 27.12742233276367 26.16025161743164 C 27.5903148651123 25.64382934570313 28.01503562927246 25.08713150024414 28.39937782287598 24.49241828918457 C 29.0334529876709 23.51097679138184 29.52553749084473 22.4583683013916 29.87054824829102 21.34785461425781 Z M 21.04612350463867 29.95077133178711 C 20.54479598999023 27.5482349395752 19.85208892822266 25.07206535339355 18.9769344329834 22.5539379119873 C 18.66443824768066 22.7067813873291 18.24806022644043 22.91659927368164 17.69379806518555 23.20478820800781 C 16.64860725402832 23.7491569519043 15.66959762573242 24.33492851257324 14.78518867492676 24.94518852233887 C 13.94533729553223 25.5252571105957 13.04450798034668 26.31503677368164 12.10845756530762 27.29206848144531 C 11.67103004455566 27.74859428405762 11.2861442565918 28.21467018127441 10.95619964599609 28.68686485290527 C 12.94267654418945 29.86958694458008 15.10044860839844 30.44825744628906 17.50031852722168 30.44825744628906 C 18.7004451751709 30.44811248779297 19.88777542114258 30.28119850158691 21.04612350463867 29.95077133178711 Z"/></g></g></svg>