<svg xmlns="http://www.w3.org/2000/svg" width="48.545" height="39" viewBox="0 0 48.545 39"><defs><style>.a{fill:#f60261;}.b,.c{stroke:none;}.c{fill:#190232;}</style></defs><g transform="translate(2 -52.817)"><g class="a"><path class="b" d="M 40.56822204589844 90.81700134277344 L 3.977353572845459 90.81700134277344 C 2.613073587417603 90.81700134277344 1.429943561553955 90.32518005371094 0.4608335793018341 89.35519409179688 C -0.5083664059638977 88.38623046875 -0.9999964237213135 87.20339202880859 -0.9999964237213135 85.83992767333984 L -0.9999964237213135 58.79434967041016 C -0.9999964237213135 57.43050003051758 -0.5083664059638977 56.24745178222656 0.4612235724925995 55.27807235717773 C 1.430563569068909 54.30861282348633 2.613603591918945 53.81700134277344 3.977353572845459 53.81700134277344 L 40.56814193725586 53.81700134277344 C 41.93181228637695 53.81700134277344 43.11477279663086 54.30863189697266 44.08415222167969 55.27822113037109 C 45.05351257324219 56.24703979492188 45.54520416259766 57.43009948730469 45.54530334472656 58.79428100585938 L 45.54530334472656 85.83992767333984 C 45.54530334472656 87.20361328125 45.05364227294922 88.38648223876953 44.08399200439453 89.35567474365234 C 43.115234375 90.32518768310547 41.93221282958984 90.81700134277344 40.56822204589844 90.81700134277344 Z M 4.181743621826172 85.63422393798828 L 40.36313247680664 85.63422393798828 L 40.36313247680664 69.09664916992188 C 40.33486175537109 69.11990356445313 40.3065071105957 69.14305114746094 40.27809524536133 69.16608428955078 L 40.26807403564453 69.17420959472656 L 40.25784301757813 69.18206787109375 C 35.85134506225586 72.56887817382813 32.29927444458008 75.38710784912109 29.70029449462891 77.5584716796875 C 28.85076332092285 78.27483367919922 28.1416130065918 78.84712219238281 27.59603309631348 79.25649261474609 C 27.00252342224121 79.70222473144531 26.23666381835938 80.13338470458984 25.25500297546387 80.5743408203125 C 24.22866439819336 81.03639221191406 23.23333358764648 81.27082824707031 22.29742431640625 81.27082824707031 L 22.27270317077637 81.27082824707031 L 22.24771308898926 81.27082824707031 C 21.31208419799805 81.27082824707031 20.31675338745117 81.03641510009766 19.28935432434082 80.57407379150391 C 18.30957412719727 80.13378143310547 17.54402351379395 79.70269775390625 16.94942283630371 79.25640869140625 C 16.40448379516602 78.84757232666016 15.6953239440918 78.2752685546875 14.8418436050415 77.55551910400391 C 12.25043392181396 75.39048004150391 8.698273658752441 72.57225036621094 4.287533760070801 69.18206024169922 L 4.277283668518066 69.17417907714844 L 4.267243385314941 69.16603088378906 C 4.23865795135498 69.14286041259766 4.210190773010254 69.11961364746094 4.181743621826172 69.09620666503906 L 4.181743621826172 85.63422393798828 Z M 4.184621334075928 58.99856948852539 C 4.242116451263428 61.39119338989258 5.313701629638672 63.37850570678711 7.455643653869629 65.06841278076172 C 10.6933536529541 67.61859130859375 14.04796314239502 70.27053070068359 17.42566299438477 72.95005798339844 L 17.43514442443848 72.95758056640625 L 17.44443321228027 72.96532440185547 C 17.55568313598633 73.05805206298828 17.87465286254883 73.32669067382813 18.31954383850098 73.70235443115234 C 18.78603363037109 74.09698486328125 19.15769386291504 74.40029907226563 19.42489433288574 74.60446929931641 C 19.68817329406738 74.80599212646484 20.04358291625977 75.05743408203125 20.48192405700684 75.35231781005859 C 20.8757438659668 75.61711883544922 21.23282432556152 75.81295013427734 21.54306411743164 75.93421936035156 C 21.80565452575684 76.03656768798828 22.04305267333984 76.08865356445313 22.24771308898926 76.08865356445313 L 22.27270317077637 76.08865356445313 L 22.29742431640625 76.08865356445313 C 22.50226402282715 76.08865356445313 22.73959350585938 76.03659820556641 23.00280380249023 75.93394470214844 C 23.31173324584961 75.81317901611328 23.6689338684082 75.61729431152344 24.06376266479492 75.35200500488281 C 24.49761390686035 75.06029510498047 24.85310363769531 74.80879211425781 25.12008285522461 74.60466003417969 C 25.38821411132813 74.39997100830078 25.75962448120117 74.09683227539063 26.2246036529541 73.70317840576172 C 26.70896339416504 73.29434967041016 27.00072288513184 73.04879760742188 27.10049438476563 72.96558380126953 L 27.10998344421387 72.95766448974609 L 27.11966323852539 72.94998168945313 C 30.59126472473145 70.19666290283203 33.94528579711914 67.54537963867188 37.08824157714844 65.07001495361328 C 37.89244079589844 64.42906951904297 38.65877914428711 63.54510116577148 39.36597442626953 62.44264221191406 C 40.02763366699219 61.41106033325195 40.36313247680664 60.49295043945313 40.36313247680664 59.71385192871094 L 40.36313247680664 59.44047164916992 L 40.36322021484375 59.12434005737305 C 40.36236572265625 59.10181427001953 40.36078643798828 59.05985260009766 40.3585319519043 58.99856948852539 L 4.184621334075928 58.99856948852539 Z"/><path class="c" d="M 3.977344512939453 54.81700134277344 C 2.883625030517578 54.81700134277344 1.9471435546875 55.20626831054688 1.168254852294922 55.98525238037109 C 0.3892745971679688 56.76406097412109 3.814697265625e-06 57.70045471191406 3.814697265625e-06 58.79434967041016 L 3.814697265625e-06 85.83993530273438 C 3.814697265625e-06 86.93400573730469 0.3892745971679688 87.86959838867188 1.168254852294922 88.64840698242188 C 1.947052001953125 89.42790222167969 2.883533477783203 89.81700134277344 3.977344512939453 89.81700134277344 L 40.56822204589844 89.81700134277344 C 41.66177368164063 89.81700134277344 42.59816360473633 89.42790222167969 43.37705230712891 88.64840698242188 C 44.15621185302734 87.86959838867188 44.54530334472656 86.9334716796875 44.54530334472656 85.83993530273438 L 44.54530334472656 58.79434967041016 C 44.54522323608398 57.70045471191406 44.15621185302734 56.76406097412109 43.37697219848633 55.98525238037109 C 42.59816360473633 55.20626831054688 41.66168212890625 54.81700134277344 40.56814193725586 54.81700134277344 L 3.977344512939453 54.81700134277344 M 40.82013702392578 58.07596588134766 C 40.85378265380859 58.07596588134766 40.88586807250977 58.07091522216797 40.9163932800293 58.06082153320313 C 40.93380355834961 58.05495452880859 40.95045852661133 58.05202484130859 40.96633148193359 58.05202484130859 C 41.04120635986328 58.05201721191406 41.09900665283203 58.11716461181641 41.13981246948242 58.24696350097656 C 41.18706893920898 58.39666748046875 41.23061370849609 58.47132873535156 41.27032470703125 58.47132873535156 C 41.27239608764648 58.47132873535156 41.27445220947266 58.47113037109375 41.27650451660156 58.47071838378906 C 41.27805328369141 58.47041320800781 41.27957916259766 58.47025299072266 41.28108215332031 58.47025299072266 C 41.31987762451172 58.47024536132813 41.34333038330078 58.57393646240234 41.35130310058594 58.78163909912109 C 41.35904312133789 58.9969482421875 41.36322402954102 59.10535430908203 41.36322402954102 59.10535430908203 L 41.36322402954102 59.44046783447266 L 41.36313247680664 59.44046783447266 L 41.36313247680664 59.71385192871094 C 41.36313247680664 60.69152069091797 40.97821426391602 61.78123474121094 40.20768356323242 62.98257446289063 C 39.43706512451172 64.18391418457031 38.60401153564453 65.14111328125 37.70967483520508 65.85349273681641 C 34.5108642578125 68.37283325195313 31.18869400024414 70.99916839599609 27.74105262756348 73.73348236083984 C 27.64179420471191 73.8162841796875 27.35152435302734 74.06059265136719 26.87074279785156 74.46640014648438 C 26.39066314697266 74.87283325195313 26.00931358337402 75.18391418457031 25.72747421264648 75.39906311035156 C 25.44529342651367 75.61481475830078 25.07700347900391 75.87574768066406 24.62147331237793 76.18204498291016 C 24.16560363769531 76.48834228515625 23.74725341796875 76.71662139892578 23.36616325378418 76.86559295654297 C 22.98507308959961 77.01422119140625 22.62871360778809 77.08865356445313 22.29742431640625 77.08865356445313 L 22.27270317077637 77.08865356445313 L 22.24771308898926 77.08865356445313 C 21.91634368896484 77.08865356445313 21.56032371520996 77.01422119140625 21.17897415161133 76.86559295654297 C 20.79789352416992 76.71662139892578 20.37927436828613 76.48834228515625 19.92374420166016 76.18204498291016 C 19.46830368041992 75.87564849853516 19.0994930267334 75.61472320556641 18.8177433013916 75.39906311035156 C 18.53617286682129 75.18391418457031 18.15482330322266 74.87283325195313 17.67439270019531 74.46640014648438 C 17.19379425048828 74.06059265136719 16.90351295471191 73.8162841796875 16.80416297912598 73.73348236083984 C 13.35731315612793 70.99909210205078 10.03479385375977 68.37283325195313 6.83624267578125 65.85349273681641 C 4.400054931640625 63.93143463134766 3.182174682617188 61.57801818847656 3.182174682617188 58.79391479492188 C 3.182174682617188 58.57870483398438 3.260791778564453 58.39211273193359 3.418292999267578 58.23487091064453 C 3.575794219970703 58.07736206054688 3.762123107910156 57.99857330322266 3.977523803710938 57.99857330322266 L 40.56839370727539 57.99857330322266 C 40.66013717651367 58.05017852783203 40.74410629272461 58.07596588134766 40.82013702392578 58.07596588134766 M 22.29742431640625 80.27082824707031 C 23.09269332885742 80.27082824707031 23.94245338439941 80.06857299804688 24.84524345397949 79.66215515136719 C 25.74863433837891 79.25634002685547 26.4658031463623 78.85469818115234 26.99585342407227 78.45663452148438 C 27.52600288391113 78.05883026123047 28.21391296386719 77.5037841796875 29.05914306640625 76.79106140136719 C 31.67756271362305 74.60343933105469 35.20687484741211 71.80297088623047 39.64845275878906 68.38919830322266 C 40.26166534423828 67.8922119140625 40.83369445800781 67.34518432617188 41.36313247680664 66.74860382080078 L 41.36313247680664 85.83930969238281 C 41.36313247680664 86.05480194091797 41.28451538085938 86.2412109375 41.12683486938477 86.39863586425781 C 40.96925354003906 86.55621337890625 40.78302383422852 86.63421630859375 40.56787490844727 86.63421630859375 L 3.977085113525391 86.63421630859375 C 3.761684417724609 86.63421630859375 3.5751953125 86.55621337890625 3.417861938476563 86.39863586425781 C 3.260364532470703 86.2412109375 3.181743621826172 86.05480194091797 3.181743621826172 85.83930969238281 L 3.181743621826172 66.74860382080078 C 3.71197509765625 67.34518432617188 4.283733367919922 67.89212799072266 4.896934509277344 68.38919830322266 C 9.338344573974609 71.80297088623047 12.86809349060059 74.60343933105469 15.48651313781738 76.79106140136719 C 16.33166313171387 77.5037841796875 17.01948356628418 78.05883026123047 17.54972267150879 78.45663452148438 C 18.07995414733887 78.8546142578125 18.79667282104492 79.25634002685547 19.6997241973877 79.66215515136719 C 20.60286331176758 80.06857299804688 21.45227432250977 80.27082824707031 22.24771308898926 80.27082824707031 L 22.27270317077637 80.27082824707031 L 22.29742431640625 80.27082824707031 M 3.977344512939453 52.81700134277344 L 40.56814193725586 52.81700134277344 C 42.18363189697266 52.81700134277344 43.64399337768555 53.42359161376953 44.79134368896484 54.57118988037109 C 45.93848419189453 55.71770477294922 46.54518508911133 57.17819213867188 46.54530334472656 58.79420471191406 L 46.54530334472656 85.83993530273438 C 46.54530334472656 87.45545959472656 45.93865203857422 88.91575622558594 44.79094314575195 90.06294250488281 C 43.64462280273438 91.21015167236328 42.18413543701172 91.81700134277344 40.56822204589844 91.81700134277344 L 3.977344512939453 91.81700134277344 C 2.361133575439453 91.81700134277344 0.9005241394042969 91.21012115478516 -0.2465972900390625 90.06198120117188 C -1.393405914306641 88.91543579101563 -1.999996185302734 87.4552001953125 -1.999996185302734 85.83993530273438 L -1.999996185302734 58.79434967041016 C -1.999996185302734 57.17868041992188 -1.393405914306641 55.71823120117188 -0.2458076477050781 54.57088470458984 C 0.9013824462890625 53.42356109619141 2.361804962158203 52.81700134277344 3.977344512939453 52.81700134277344 Z M 39.34177017211914 59.99857330322266 L 5.287384033203125 59.99857330322266 C 5.582756042480469 61.63250732421875 6.502449035644531 63.04262542724609 8.075035095214844 64.28333282470703 C 11.3134651184082 66.83408355712891 14.66899299621582 69.48674011230469 18.04714393615723 72.16664123535156 L 18.06606292724609 72.181640625 L 18.08460426330566 72.19709777832031 C 18.19709396362305 72.29084777832031 18.51787376403809 72.56100463867188 18.9647045135498 72.93829345703125 C 19.41931343078613 73.32288360595703 19.7779426574707 73.61572265625 20.03204345703125 73.80989074707031 C 20.27987289428711 73.99958038330078 20.61859321594238 74.23902893066406 21.04010391235352 74.52259826660156 C 21.45498275756836 74.80157470703125 21.74063301086426 74.93777465820313 21.90714263916016 75.00286102294922 C 22.11125373840332 75.08241271972656 22.21945381164551 75.08865356445313 22.24771308898926 75.08865356445313 L 22.27270317077637 75.08865356445313 L 22.29742431640625 75.08865356445313 C 22.32571411132813 75.08865356445313 22.43399429321289 75.08242034912109 22.63945388793945 75.00228881835938 C 22.80418395996094 74.93788909912109 23.08967399597168 74.80173492431641 23.50606346130371 74.52196502685547 C 23.92288398742676 74.24169921875 24.26174354553223 74.00212097167969 24.51269340515137 73.81024932861328 C 24.76810264587402 73.61527252197266 25.12628364562988 73.32278442382813 25.5784740447998 72.93994903564453 C 26.03536415100098 72.55429840087891 26.34760284423828 72.29135894775391 26.45992279052734 72.19766998291016 L 26.47890281677246 72.18183898925781 L 26.4982738494873 72.16648101806641 C 29.97173881530762 69.41168975830078 33.3259162902832 66.76027679443359 36.46802520751953 64.28558349609375 C 37.18538665771484 63.713134765625 37.877197265625 62.91144561767578 38.52426147460938 61.9027099609375 C 38.98682022094727 61.18152618408203 39.26559066772461 60.53048706054688 39.34177017211914 59.99857330322266 Z M 14.20083045959473 78.32307434082031 C 11.91801452636719 76.41594696044922 8.889080047607422 74.00174713134766 5.181743621826172 71.13420104980469 L 5.181743621826172 84.63421630859375 L 39.36313247680664 84.63421630859375 L 39.36313247680664 71.13457489013672 C 35.65884780883789 73.99971771240234 32.62995529174805 76.41398620605469 30.34382629394531 78.32390594482422 C 29.47843933105469 79.05353546142578 28.75588989257813 79.63640594482422 28.19621276855469 80.05635833740234 C 27.54308319091797 80.54685974121094 26.71482276916504 81.01484680175781 25.66477394104004 81.48652648925781 C 24.50924301147461 82.00672912597656 23.37581443786621 82.27082824707031 22.29742431640625 82.27082824707031 L 22.27270317077637 82.27082824707031 L 22.24771308898926 82.27082824707031 C 21.16966438293457 82.27082824707031 20.03625297546387 82.00677490234375 18.87898445129395 81.48599243164063 C 17.83141326904297 81.01524353027344 17.00358390808105 80.54740142822266 16.34913444519043 80.05618286132813 C 15.79002952575684 79.63673400878906 15.06714820861816 79.05355834960938 14.20083045959473 78.32307434082031 Z"/></g></g></svg>