<svg xmlns="http://www.w3.org/2000/svg" width="39" height="39" viewBox="0 0 39 39"><defs><style>.a{fill:#f60261;}.b,.c{stroke:none;}.c{fill:#190232;}</style></defs><g transform="translate(1.999 2)"><g class="a"><path class="b" d="M 30.5121898651123 36 L 4.490129470825195 36 C 2.990949392318726 36 1.687389373779297 35.45672988891602 0.6156593561172485 34.38528823852539 C -0.4557506442070007 33.31417846679688 -0.9990006685256958 32.01065826416016 -0.9990006685256958 30.51095008850098 L -0.9990006685256958 4.488810062408447 C -0.9990006685256958 2.989209890365601 -0.4557506442070007 1.685739994049072 0.6156593561172485 0.6146299839019775 C 1.68722939491272 -0.4567500054836273 2.990799427032471 -1 4.490129470825195 -1 L 30.51250839233398 -1 C 32.01210784912109 -1 33.31562805175781 -0.4566999971866608 34.38684844970703 0.6148200035095215 C 35.45771026611328 1.685870051383972 36.00074005126953 2.989259958267212 36.00083923339844 4.488739967346191 L 36.00083923339844 30.51095008850098 C 36.00083923339844 32.01091003417969 35.45766067504883 33.3144416809082 34.38639068603516 34.38533020019531 C 33.31501007080078 35.45669937133789 32.01149749755859 36 30.5121898651123 36 Z M 4.897689342498779 15.8109302520752 L 4.897689342498779 29.57707977294922 C 4.897689342498779 29.72533988952637 4.93795919418335 29.79530906677246 5.002939224243164 29.86014938354492 C 5.069089412689209 29.92634010314941 5.139299392700195 29.96674919128418 5.287759304046631 29.96674919128418 L 29.64608001708984 29.96674919128418 C 29.7655200958252 29.96674919128418 29.84248924255371 29.9351692199707 29.9300594329834 29.8502197265625 C 29.99704933166504 29.78499031066895 30.03662872314453 29.71873092651367 30.03662872314453 29.57707977294922 L 30.03662872314453 27.95904922485352 L 30.03678894042969 27.95912933349609 L 30.03678894042969 15.81099987030029 L 29.23761940002441 15.81099987030029 C 29.35649871826172 16.46016502380371 29.41642951965332 17.12400436401367 29.41642951965332 17.79610061645508 C 29.41642951965332 19.88522911071777 28.87765884399414 21.84099006652832 27.81509017944336 23.60906028747559 C 26.75638961791992 25.36977005004883 25.29939842224121 26.78137016296387 23.48448944091797 27.80485916137695 C 21.66844940185547 28.8280200958252 19.66319847106934 29.34671020507813 17.52406883239746 29.34671020507813 C 14.277419090271 29.34671020507813 11.45980930328369 28.21327018737793 9.149529457092285 25.97788047790527 C 6.830619335174561 23.73303031921387 5.654929161071777 20.98031044006348 5.654929161071777 17.7960205078125 C 5.654929161071777 17.12348175048828 5.714745998382568 16.45956611633301 5.833351135253906 15.8109302520752 L 4.897689342498779 15.8109302520752 Z M 17.52414894104004 11.61830043792725 C 15.84907913208008 11.61830043792725 14.45529937744141 12.17854976654053 13.2631893157959 13.33108043670654 C 12.08059978485107 14.47441005706787 11.50572967529297 15.81569957733154 11.50572967529297 17.43160057067871 C 11.50572967529297 19.04739952087402 12.08056926727295 20.38849067687988 13.26309967041016 21.53149032592773 C 14.45582962036133 22.68440055847168 15.84961891174316 23.24482917785645 17.52414894104004 23.24482917785645 C 19.2143497467041 23.24482917785645 20.61551856994629 22.68444061279297 21.80770874023438 21.53162956237793 C 22.99018859863281 20.38882064819336 23.56490898132324 19.04775047302246 23.56490898132324 17.43160057067871 C 23.56490898132324 15.8154296875 22.99014854431152 14.47414016723633 21.80778884887695 13.33108997344971 C 20.61540985107422 12.17858028411865 19.21418952941895 11.61830043792725 17.52414894104004 11.61830043792725 Z M 25.49925994873047 4.896369934082031 C 25.32930946350098 4.896369934082031 25.21319961547852 4.944330215454102 25.09848022460938 5.061920166015625 C 24.97682952880859 5.186669826507568 24.92713928222656 5.304599761962891 24.92713928222656 5.468810081481934 L 24.92713928222656 9.228230476379395 C 24.92713928222656 9.403510093688965 24.97426986694336 9.522130012512207 25.08980941772461 9.637669563293457 C 25.20550918579102 9.753459930419922 25.32404899597168 9.800580024719238 25.49925994873047 9.800580024719238 L 29.46394920349121 9.800580024719238 C 29.63912963867188 9.800580024719238 29.75762939453125 9.753490447998047 29.87294960021973 9.638050079345703 C 29.98950958251953 9.521699905395508 30.03662872314453 9.40326976776123 30.03662872314453 9.228230476379395 L 30.03662872314453 5.468810081481934 C 30.03662872314453 5.304870128631592 29.98691940307617 5.187099933624268 29.86503982543945 5.062310218811035 C 29.74843978881836 4.942709922790527 29.63615989685059 4.896369934082031 29.46394920349121 4.896369934082031 L 25.49925994873047 4.896369934082031 Z"/><path class="c" d="M 4.490129470825195 0 C 3.259599685668945 0 2.204029083251953 0.4406394958496094 1.322669982910156 1.321830749511719 C 0.4414787292480469 2.202781677246094 0.00099945068359375 3.258520126342773 0.00099945068359375 4.488809585571289 L 0.00099945068359375 30.51095008850098 C 0.00099945068359375 31.74107933044434 0.4413986206054688 32.79705810546875 1.322669982910156 33.6780891418457 C 2.204029083251953 34.55920028686523 3.25984001159668 35 4.490129470825195 35 L 30.5121898651123 35 C 31.74207878112793 35 32.79829788208008 34.55920028686523 33.67940902709961 33.6780891418457 C 34.56076049804688 32.79705810546875 35.00083923339844 31.74107933044434 35.00083923339844 30.51095008850098 L 35.00083923339844 4.488809585571289 C 35.00075912475586 3.258279800415039 34.56076049804688 2.203098297119141 33.67964935302734 1.321830749511719 C 32.79853057861328 0.4404716491699219 31.74263000488281 0 30.51250839233398 0 L 4.490129470825195 0 M 29.46394920349121 10.80057907104492 L 25.49925994873047 10.80057907104492 C 25.05893898010254 10.80057907104492 24.68637847900391 10.64870071411133 24.38269805908203 10.34477996826172 C 24.07893943786621 10.04101943969727 23.92713928222656 9.668779373168945 23.92713928222656 9.228229522705078 L 23.92713928222656 5.468809127807617 C 23.92713928222656 5.043420791625977 24.07893943786621 4.675090789794922 24.38269805908203 4.363590240478516 C 24.68645858764648 4.052240371704102 25.05901908874512 3.896369934082031 25.49925994873047 3.896369934082031 L 29.46394920349121 3.896369934082031 C 29.90474891662598 3.896369934082031 30.27681922912598 4.052160263061523 30.58042907714844 4.363590240478516 C 30.88467025756836 4.675090789794922 31.03661918640137 5.043420791625977 31.03661918640137 5.468809127807617 L 31.03661918640137 9.228229522705078 C 31.03661918640137 9.668779373168945 30.88473892211914 10.04101943969727 30.58042907714844 10.34477996826172 C 30.2767391204834 10.64878082275391 29.90474891662598 10.80057907104492 29.46394920349121 10.80057907104492 M 17.52414894104004 24.24483108520508 C 15.5949592590332 24.24483108520508 13.94302940368652 23.57952117919922 12.56811904907227 22.25051116943359 C 11.19314002990723 20.92150115966797 10.50572967529297 19.31497955322266 10.50572967529297 17.43160057067871 C 10.50572967529297 15.5479793548584 11.19314002990723 13.94146919250488 12.56811904907227 12.61212921142578 C 13.94278907775879 11.28311920166016 15.59486961364746 10.61829948425293 17.52414894104004 10.61829948425293 C 19.46833801269531 10.61829948425293 21.12784957885742 11.28311920166016 22.50283050537109 12.61212921142578 C 23.8778190612793 13.9413890838623 24.56490898132324 15.5479793548584 24.56490898132324 17.43160057067871 C 24.56490898132324 19.31497955322266 23.8778190612793 20.92166137695313 22.50283050537109 22.25051116943359 C 21.12784957885742 23.58008003234863 19.46889877319336 24.24483108520508 17.52414894104004 24.24483108520508 M 17.52406883239746 28.34671020507813 C 19.49890899658203 28.34671020507813 21.32170867919922 27.87558937072754 22.99327850341797 26.93381881713867 C 24.66427993774414 25.99148941040039 25.98506927490234 24.71195983886719 26.95796966552734 23.09395027160645 C 27.9303092956543 21.47602081298828 28.41642951965332 19.7099609375 28.41642951965332 17.79610061645508 C 28.41642951965332 16.76333999633789 28.26398849487305 15.76841926574707 27.9603099822998 14.81100082397461 L 31.03678894042969 14.81100082397461 L 31.03678894042969 29.5771598815918 L 31.03661918640137 29.5771598815918 L 31.03661918640137 29.57707977294922 C 31.03661918640137 29.97175025939941 30.89950942993164 30.30200004577637 30.62631988525391 30.5680103302002 C 30.35232925415039 30.83378028869629 30.02621841430664 30.96675109863281 29.64608001708984 30.96675109863281 L 5.287759780883789 30.96675109863281 C 4.892848968505859 30.96675109863281 4.562198638916016 30.83378982543945 4.296588897705078 30.5680103302002 C 4.03057861328125 30.30255889892578 3.897689819335938 29.97175025939941 3.897689819335938 29.57707977294922 L 3.897689819335938 14.8109302520752 L 7.110488891601563 14.8109302520752 C 6.806798934936523 15.76810073852539 6.654918670654297 16.76325988769531 6.654918670654297 17.7960205078125 C 6.654918670654297 20.71335029602051 7.718170166015625 23.20042037963867 9.844888687133789 25.25922012329102 C 11.97184944152832 27.31723022460938 14.53146934509277 28.34671020507813 17.52406883239746 28.34671020507813 M 4.490129470825195 -2 L 30.51250839233398 -2 C 32.26202011108398 -2 33.84629821777344 -1.340290069580078 35.09405899047852 -0.09218978881835938 C 36.34135055541992 1.155330657958984 37.00072860717773 2.739391326904297 37.00083923339844 4.488679885864258 L 37.00083923339844 30.51095008850098 C 37.00083923339844 32.26084136962891 36.34124755859375 33.84513092041016 35.09336853027344 35.09255981445313 C 33.84560012817383 36.34032821655273 32.26136016845703 37 30.5121898651123 37 L 4.490129470825195 37 C 2.74114990234375 37 1.156909942626953 36.34040069580078 -0.091339111328125 35.09249877929688 C -1.339351654052734 33.84484100341797 -1.999000549316406 32.26057052612305 -1.999000549316406 30.51095008850098 L -1.999000549316406 4.488809585571289 C -1.999000549316406 2.739299774169922 -1.339351654052734 1.155078887939453 -0.09135055541992188 -0.09257888793945313 C 1.156719207763672 -1.340400695800781 2.740989685058594 -2 4.490129470825195 -2 Z M 29.03661918640137 5.896369934082031 L 25.92713928222656 5.896369934082031 L 25.92713928222656 8.800579071044922 L 29.03661918640137 8.800579071044922 L 29.03661918640137 5.896369934082031 Z M 17.52414894104004 22.24483108520508 C 18.94223022460938 22.24483108520508 20.11600875854492 21.77639007568359 21.1125602722168 20.8127498626709 C 22.10353851318359 19.85503005981445 22.56490898132324 18.78075981140137 22.56490898132324 17.43160057067871 C 22.56490898132324 16.08234977722168 22.10346984863281 15.00783920288086 21.11272811889648 14.05005073547363 C 20.11602973937988 13.086669921875 18.9421501159668 12.61829948425293 17.52414894104004 12.61829948425293 C 16.12117004394531 12.61829948425293 14.95475006103516 13.08662033081055 13.95825004577637 14.05002021789551 C 12.9672794342041 15.00810050964355 12.50572967529297 16.08262062072754 12.50572967529297 17.43160057067871 C 12.50572967529297 18.78042984008789 12.96722984313965 19.85472869873047 13.95808982849121 20.81245994567871 C 14.95522880554199 21.77630996704102 16.12167930603027 22.24483108520508 17.52414894104004 22.24483108520508 Z M 11.59528160095215 28.96675109863281 C 10.46975135803223 28.38945770263672 9.420989990234375 27.63201713562012 8.454170227050781 26.69654083251953 C 7.372106552124023 25.6490364074707 6.519025802612305 24.4995231628418 5.897689819335938 23.2545166015625 L 5.897689819335938 28.96675109863281 L 11.59528160095215 28.96675109863281 Z M 29.03678894042969 26.42560005187988 L 29.03678894042969 23.47491073608398 C 28.92232704162598 23.69377326965332 28.80078506469727 23.91024208068848 28.67221832275391 24.12417030334473 C 27.52317047119141 26.03512954711914 25.94311904907227 27.56641006469727 23.97570037841797 28.67589950561523 C 23.7955207824707 28.77741432189941 23.61350631713867 28.87441444396973 23.42998123168945 28.96675109863281 L 29.03661918640137 28.96675109863281 L 29.03661918640137 26.4255199432373 L 29.03678894042969 26.42560005187988 Z"/></g></g></svg>