<svg xmlns="http://www.w3.org/2000/svg" width="49.72" height="40.758" viewBox="0 0 49.72 40.758"><defs><style>.a{fill:#f60261;}.b,.c{stroke:none;}.c{fill:#190232;}</style></defs><g transform="translate(1.084 -38.501)"><g class="a"><path class="b" d="M 13.56192970275879 78.25899505615234 C 8.449559211730957 78.25899505615234 3.704099655151367 76.87150573730469 -0.5426404476165771 74.13507843017578 L 0.1132295504212379 72.30101776123047 C 0.7050595283508301 72.36906433105469 1.384239554405212 72.403564453125 2.131919622421265 72.403564453125 C 5.140969276428223 72.403564453125 7.923121929168701 71.67331695556641 10.43264102935791 70.22848510742188 C 9.333174705505371 69.90259552001953 8.303956985473633 69.38053894042969 7.354399681091309 68.66555786132813 C 5.679499626159668 67.40355682373047 4.512739658355713 65.76998138427734 3.886279582977295 63.81003570556641 L 3.396359443664551 62.27725601196289 L 4.544022083282471 62.44995498657227 C 3.98418116569519 62.01081085205078 3.465333938598633 61.50409317016602 2.989509582519531 60.93106460571289 C 1.502919554710388 59.14031600952148 0.7491995692253113 57.03472518920898 0.7491995692253113 54.67270660400391 L 0.7491995692253113 54.56333541870117 L 0.7491995692253113 52.85882568359375 L 2.237079620361328 53.69042587280273 C 2.317723989486694 53.73549652099609 2.398865222930908 53.77904891967773 2.480552673339844 53.82111358642578 C 2.307639122009277 53.56426620483398 2.145294666290283 53.29775619506836 1.993669509887695 53.02172470092773 C 1.203909516334534 51.58468627929688 0.8034095764160156 50.00577545166016 0.8034095764160156 48.32904434204102 C 0.8034095764160156 46.55195617675781 1.254539608955383 44.88212585449219 2.144259452819824 43.36593627929688 L 2.874029636383057 42.12233352661133 L 3.782999515533447 43.24164581298828 C 5.890869617462158 45.83727645874023 8.493330001831055 47.94458389282227 11.51808929443359 49.50506591796875 C 14.17898082733154 50.87756729125977 17.04118537902832 51.72259140014648 20.04294586181641 52.02349472045898 C 20.01406860351563 51.70883560180664 19.99954032897949 51.39740753173828 19.99954032897949 51.09090423583984 C 19.99954032897949 48.38501358032227 20.96735954284668 46.04503631591797 22.8760986328125 44.13596343994141 C 24.78581047058105 42.22688674926758 27.12594032287598 41.25899505615234 29.83164024353027 41.25899505615234 C 32.46686172485352 41.25899505615234 34.74526977539063 42.16652679443359 36.61271667480469 43.95830154418945 C 38.28858947753906 43.57909774780273 39.89030838012695 42.94025421142578 41.38090133666992 42.05581665039063 L 43.65200805664063 40.70825576782227 L 42.84310913085938 43.22213363647461 C 42.51643371582031 44.23738098144531 42.05492401123047 45.15715026855469 41.46211242675781 45.97699737548828 C 41.8751220703125 45.83376312255859 42.28750610351563 45.67365264892578 42.6986198425293 45.496826171875 L 45.86486053466797 44.13497543334961 L 43.91917037963867 46.97996520996094 C 42.74071884155273 48.70309066772461 41.31773376464844 50.21033477783203 39.68442535400391 51.46651458740234 C 39.6887321472168 51.65890502929688 39.69086074829102 51.87921524047852 39.69086074829102 52.12968444824219 C 39.69086074829102 54.5828742980957 39.32769775390625 57.06505584716797 38.61148071289063 59.50728607177734 C 37.89358139038086 61.95162582397461 36.79008102416992 64.3265380859375 35.33150100708008 66.56641387939453 C 33.87385940551758 68.80480194091797 32.11325836181641 70.81343841552734 30.09860992431641 72.53649139404297 C 28.06406021118164 74.27647399902344 25.58580017089844 75.68053436279297 22.73266983032227 76.70969390869141 C 19.88604927062988 77.73769378662109 16.80044937133789 78.25899505615234 13.56192970275879 78.25899505615234 Z"/><path class="c" d="M 29.83163833618164 42.25899505615234 C 27.38917922973633 42.25899505615234 25.30665016174316 43.12020874023438 23.5832691192627 44.843017578125 C 21.86084938049316 46.56571197509766 20.99954032897949 48.64825439453125 20.99954032897949 51.09091186523438 C 20.99954032897949 51.74706268310547 21.07233047485352 52.42179870605469 21.21829032897949 53.11444854736328 C 17.60870933532715 52.93218231201172 14.22267913818359 52.02529144287109 11.05960083007813 50.39376831054688 C 7.896720886230469 48.76203155517578 5.212429046630859 46.588134765625 3.006729125976563 43.87203216552734 C 2.204608917236328 45.23895263671875 1.803409576416016 46.72489166259766 1.803409576416016 48.32903289794922 C 1.803409576416016 49.84209442138672 2.158828735351563 51.2459716796875 2.870159149169922 52.54027557373047 C 3.581001281738281 53.83438873291016 4.53826904296875 54.88246154785156 5.741500854492188 55.68466567993164 C 4.319328308105469 55.62988662719727 2.988628387451172 55.25607299804688 1.749198913574219 54.56333160400391 L 1.749198913574219 54.67270660400391 C 1.749198913574219 56.80571365356445 2.419151306152344 58.67841339111328 3.75885009765625 60.2922248840332 C 5.098751068115234 61.90584564208984 6.789661407470703 62.92153549194336 8.831199645996094 63.34103393554688 C 8.065479278564453 63.54130554199219 7.290557861328125 63.64157485961914 6.506839752197266 63.64157485961914 C 5.996349334716797 63.64157485961914 5.440280914306641 63.59608459472656 4.838809967041016 63.50557327270508 C 5.403888702392578 65.27349853515625 6.443050384521484 66.72678375244141 7.955909729003906 67.86669921875 C 9.469070434570313 69.00604248046875 11.18268013000488 69.59333801269531 13.09683990478516 69.63069152832031 C 9.888561248779297 72.14593505859375 6.233589172363281 73.403564453125 2.131919860839844 73.403564453125 C 1.347900390625 73.403564453125 0.6371498107910156 73.36784362792969 -0.00099945068359375 73.29447937011719 C 4.10076904296875 75.93748474121094 8.621650695800781 77.25899505615234 13.56192970275879 77.25899505615234 C 16.69740867614746 77.25899505615234 19.64153861999512 76.76278686523438 22.39336013793945 75.76901245117188 C 25.14651870727539 74.77592468261719 27.49789047241211 73.44483947753906 29.44863891601563 71.77653503417969 C 31.39881896972656 70.10861206054688 33.08091735839844 68.18994140625 34.49350738525391 66.02072143554688 C 35.90618896484375 63.85132598876953 36.95856857299805 61.5865364074707 37.65188980102539 59.22586441040039 C 38.34433746337891 56.86471557617188 38.69086074829102 54.49993133544922 38.69086074829102 52.12968444824219 C 38.69086074829102 51.61920166015625 38.68165969848633 51.236572265625 38.66336822509766 50.98124694824219 C 40.39564895629883 49.72400665283203 41.87221908569336 48.20156860351563 43.09373092651367 46.41545867919922 C 41.39831924438477 47.14468383789063 39.70252990722656 47.60009765625 38.00788116455078 47.78301239013672 C 39.92195129394531 46.63458251953125 41.21664047241211 45.01214599609375 41.89117813110352 42.91582489013672 C 40.14031982421875 43.95469665527344 38.27212905883789 44.66544342041016 36.28527069091797 45.04844665527344 C 34.53506851196289 43.18907165527344 32.38433837890625 42.25899505615234 29.83163833618164 42.25899505615234 M 45.41283798217773 38.50068664550781 L 43.79504776000977 43.52843475341797 C 43.74288558959961 43.69054412841797 43.68767547607422 43.85027313232422 43.62929916381836 44.0079345703125 L 48.63592910766602 41.85448455810547 L 44.74459075927734 47.54446411132813 C 43.60271072387695 49.21413421630859 42.24198150634766 50.69110107421875 40.69046020507813 51.94647979736328 C 40.69072723388672 52.00583648681641 40.69086074829102 52.06687164306641 40.69086074829102 52.12968444824219 C 40.69086074829102 54.67816162109375 40.31410980224609 57.25503540039063 39.57106018066406 59.7886962890625 C 38.82559967041016 62.32688522338867 37.68122863769531 64.79058837890625 36.16949081420898 67.11209106445313 C 34.65969848632813 69.43057250976563 32.83584976196289 71.51128387451172 30.74858093261719 73.29645538330078 C 28.62186050415039 75.11524963378906 26.03909873962402 76.58009338378906 23.07197952270508 77.65036010742188 C 20.11647987365723 78.71768188476563 16.9166088104248 79.25899505615234 13.56192970275879 79.25899505615234 C 8.254299163818359 79.25899505615234 3.32659912109375 77.81788635253906 -1.084300994873047 74.97568511962891 L 0.2274398803710938 71.30756378173828 C 0.7814979553222656 71.37126159667969 1.422260284423828 71.403564453125 2.131919860839844 71.403564453125 C 4.251567840576172 71.403564453125 6.207534790039063 71.03941345214844 8.034572601318359 70.29916381835938 C 7.594093322753906 70.05429077148438 7.166641235351563 69.77597045898438 6.752880096435547 69.46442413330078 C 4.909210205078125 68.07525634765625 3.62445068359375 66.27540588378906 2.933757781982422 64.11448669433594 L 2.055610656738281 61.36708450317383 C 0.5248031616210938 59.43647384643555 -0.2508010864257813 57.18582153320313 -0.2508010864257813 54.67270660400391 L -0.2508010864257813 54.56333160400391 L -0.2508010864257813 51.15430450439453 L 0.2493820190429688 51.43386840820313 C -0.04712677001953125 50.44116973876953 -0.1965904235839844 49.403076171875 -0.1965904235839844 48.32903289794922 C -0.1965904235839844 46.37165832519531 0.3008079528808594 44.53154754638672 1.281787872314453 42.85982513427734 L 2.741310119628906 40.37259674072266 L 4.559268951416016 42.61123657226563 C 6.579639434814453 45.09911346435547 9.075180053710938 47.11953735351563 11.97655868530273 48.61635589599609 C 14.18533897399902 49.75565338134766 16.53983116149902 50.51553344726563 19.0012378692627 50.88558197021484 C 19.04916572570801 47.99158477783203 20.11427116394043 45.48391723632813 22.1689395904541 43.42891693115234 C 24.27315902709961 41.32539367675781 26.85114860534668 40.25899505615234 29.83163833618164 40.25899505615234 C 32.54580307006836 40.25899505615234 34.91653442382813 41.13326263427734 36.89452362060547 42.86033630371094 C 38.28635406494141 42.49583435058594 39.62004470825195 41.93783569335938 40.87060928344727 41.19581604003906 L 45.41283798217773 38.50068664550781 Z"/></g></g></svg>