<svg xmlns="http://www.w3.org/2000/svg" width="20.533" height="39" viewBox="0 0 20.533 39"><defs><style>.a{fill:#f60261;}.b,.c{stroke:none;}.c{fill:#190232;}</style></defs><g class="a" transform="translate(-123.619 2)"><path class="b" d="M 137.47216796875 36 L 136.47216796875 36 L 129.2296905517578 36 L 128.2296905517578 36 L 128.2296905517578 35 L 128.2296905517578 18.49995994567871 L 125.6190185546875 18.49995994567871 L 124.6190185546875 18.49995994567871 L 124.6190185546875 17.49995994567871 L 124.6190185546875 11.46819972991943 L 124.6190185546875 10.46819972991943 L 125.6190185546875 10.46819972991943 L 128.2299194335938 10.46819972991943 L 128.2299194335938 7.836619853973389 C 128.2299194335938 5.013050079345703 128.9331665039063 2.816689968109131 130.3201293945313 1.308550000190735 C 131.7294311523438 -0.2233300060033798 133.9993286132813 -1 137.06689453125 -1 L 141.8878631591797 -1 L 142.8878631591797 -1 L 142.8878631591797 0 L 142.8878631591797 6.031320095062256 L 142.8878631591797 7.031320095062256 L 141.8878631591797 7.031320095062256 L 138.8722839355469 7.031320095062256 C 138.299560546875 7.031320095062256 137.9792633056641 7.086740016937256 137.8114318847656 7.133240222930908 C 137.7036895751953 7.163070201873779 137.6738586425781 7.193180084228516 137.6735992431641 7.193470001220703 C 137.5912933349609 7.326620101928711 137.5416412353516 7.449180126190186 137.521240234375 7.569069862365723 C 137.4988250732422 7.700319766998291 137.4722595214844 7.959360122680664 137.4722595214844 8.452540397644043 L 137.4722595214844 10.46827983856201 L 141.9300537109375 10.46827983856201 L 143.041259765625 10.46827983856201 L 142.9245300292969 11.57334041595459 L 142.2873229980469 17.60510063171387 L 142.1927642822266 18.50004005432129 L 141.2928466796875 18.50004005432129 L 137.47216796875 18.50004005432129 L 137.47216796875 35 L 137.47216796875 36 Z"/><path class="c" d="M 137.06689453125 0 C 134.2773895263672 0 132.27392578125 0.6618194580078125 131.0561981201172 1.985469818115234 C 129.838623046875 3.309410095214844 129.2299194335938 5.259550094604492 129.2299194335938 7.836620330810547 L 129.2299194335938 11.46820068359375 L 125.6190185546875 11.46820068359375 L 125.6190185546875 17.49995994567871 L 129.2296905517578 17.49995994567871 L 129.2296905517578 35 L 136.47216796875 35 L 136.47216796875 17.50004005432129 L 141.2928466796875 17.50004005432129 L 141.9300537109375 11.46826934814453 L 136.4722595214844 11.46826934814453 L 136.4722595214844 8.452539443969727 C 136.4722595214844 7.999820709228516 136.4930725097656 7.649160385131836 136.535400390625 7.401449203491211 C 136.5775756835938 7.153369903564453 136.6735534667969 6.909379959106445 136.8224639892578 6.668519973754883 C 136.9711608886719 6.427799224853516 137.2119598388672 6.261619567871094 137.5444641113281 6.169530868530273 C 137.87744140625 6.077289581298828 138.3198852539063 6.031309127807617 138.8722839355469 6.031309127807617 L 141.8878631591797 6.031309127807617 L 141.8878631591797 0 L 137.06689453125 0 M 137.06689453125 -2 L 141.8878631591797 -2 L 143.8878631591797 -2 L 143.8878631591797 0 L 143.8878631591797 6.031309127807617 L 143.8878631591797 8.031309127807617 L 141.8878631591797 8.031309127807617 L 138.8722839355469 8.031309127807617 C 138.7158050537109 8.031309127807617 138.5864105224609 8.035915374755859 138.4804840087891 8.042764663696289 C 138.4756927490234 8.146963119506836 138.4722595214844 8.281351089477539 138.4722595214844 8.452539443969727 L 138.4722595214844 9.468269348144531 L 141.9300537109375 9.468269348144531 L 144.1524658203125 9.468269348144531 L 143.9189758300781 11.67839050292969 L 143.2817687988281 17.71015930175781 L 143.0926818847656 19.50004005432129 L 141.2928466796875 19.50004005432129 L 138.47216796875 19.50004005432129 L 138.47216796875 35 L 138.47216796875 37 L 136.47216796875 37 L 129.2296905517578 37 L 127.2296905517578 37 L 127.2296905517578 35 L 127.2296905517578 19.49995994567871 L 125.6190185546875 19.49995994567871 L 123.6190185546875 19.49995994567871 L 123.6190185546875 17.49995994567871 L 123.6190185546875 11.46820068359375 L 123.6190185546875 9.46820068359375 L 125.6190185546875 9.46820068359375 L 127.2299194335938 9.46820068359375 L 127.2299194335938 7.836620330810547 C 127.2299194335938 4.75432014465332 128.02197265625 2.330211639404297 129.5840911865234 0.6316299438476563 C 131.1906433105469 -1.114681243896484 133.7081604003906 -2 137.06689453125 -2 Z"/></g></svg>