<svg xmlns="http://www.w3.org/2000/svg" width="40.621" height="39" viewBox="0 0 40.621 39"><defs><style>.a,.b{fill:#f60261;}.a{stroke:#190232;stroke-width:2px;}.c,.e{stroke:none;}.d{fill:none;}.e{fill:#190232;}</style></defs><g transform="translate(2 -7.708)"><g class="a" transform="translate(0.453 21.081)"><rect class="c" width="7.868" height="23.627"/><rect class="d" x="-1" y="-1" width="9.868" height="25.627"/></g><g class="b" transform="translate(-138.937 -118.798)"><path class="c" d="M 160.4413299560547 164.5064239501953 L 159.4413299560547 164.5064239501953 L 151.5973358154297 164.5064239501953 L 150.5923004150391 164.5064239501953 L 150.5973510742188 163.5013885498047 C 150.6290435791016 157.2025451660156 150.6450958251953 152.0142669677734 150.6450958251953 148.0806427001953 C 150.6450958251953 144.1599578857422 150.6370849609375 141.7927093505859 150.6212768554688 141.0446624755859 L 150.5972137451172 139.8999786376953 L 150.5757751464844 138.8789672851563 L 151.5970001220703 138.8789672851563 L 159.4413452148438 138.8789672851563 L 160.4413452148438 138.8789672851563 L 160.4413452148438 139.8789672851563 L 160.4413452148438 140.5005798339844 C 160.6414794921875 140.3231658935547 160.8600769042969 140.1410369873047 161.0987548828125 139.9527282714844 C 161.7596740722656 139.4315338134766 162.5688934326172 139.0246276855469 163.5041351318359 138.7431182861328 C 164.4123229980469 138.4696655273438 165.4279327392578 138.3309936523438 166.5226593017578 138.3309936523438 C 169.5201110839844 138.3309936523438 171.9740905761719 139.3507080078125 173.81640625 141.3618316650391 C 175.6353759765625 143.34619140625 176.55810546875 146.2405090332031 176.5587463378906 149.9641571044922 L 176.5587463378906 163.5056762695313 L 176.5587463378906 164.5056762695313 L 175.5587463378906 164.5056762695313 L 167.7147369384766 164.5056762695313 L 166.7147369384766 164.5056762695313 L 166.7147369384766 163.5056762695313 L 166.7147369384766 150.8697204589844 C 166.7147369384766 149.4128875732422 166.4482269287109 148.2826385498047 165.922607421875 147.5103302001953 C 165.6358947753906 147.0891876220703 165.0968933105469 146.5291290283203 163.7332305908203 146.5291290283203 C 162.961181640625 146.5291290283203 162.3444976806641 146.7251586914063 161.8479614257813 147.1283874511719 C 161.30419921875 147.5693511962891 160.9077911376953 148.1004486083984 160.6360168457031 148.7520141601563 C 160.5457305908203 149.0061187744141 160.4413299560547 149.4816741943359 160.4413299560547 150.3215789794922 L 160.4413299560547 163.5064239501953 L 160.4413299560547 164.5064239501953 Z"/><path class="e" d="M 166.5226593017578 139.3309936523438 C 165.5213165283203 139.3309936523438 164.611083984375 139.4541625976563 163.7923583984375 139.70068359375 C 162.9738922119141 139.9470367431641 162.2826232910156 140.2926788330078 161.7181854248047 140.7377777099609 C 161.1540832519531 141.182861328125 160.7048187255859 141.5960693359375 160.3712768554688 141.9773712158203 C 160.0541229248047 142.3395385742188 159.7439727783203 142.7614288330078 159.4413452148438 143.2386779785156 L 159.4413452148438 139.8789672851563 L 151.5970001220703 139.8789672851563 L 151.6210479736328 141.0235290527344 C 151.6371765136719 141.7867126464844 151.6450958251953 144.1389770507813 151.6450958251953 148.0806427001953 C 151.6450958251953 152.0226440429688 151.6292419433594 157.1643981933594 151.5973358154297 163.5064239501953 L 159.4413299560547 163.5064239501953 L 159.4413299560547 150.3215789794922 C 159.4413299560547 149.5111389160156 159.5282592773438 148.8675384521484 159.7034606933594 148.3902893066406 C 160.0375061035156 147.5792541503906 160.5416412353516 146.9002532958984 161.2175598144531 146.3521118164063 C 161.8933868408203 145.8032836914063 162.7315521240234 145.5291290283203 163.7332305908203 145.5291290283203 C 165.0997619628906 145.5291290283203 166.1054534912109 146.001953125 166.7492980957031 146.9476776123047 C 167.3928985595703 147.8933258056641 167.7147369384766 149.2007293701172 167.7147369384766 150.8697204589844 L 167.7147369384766 163.5056762695313 L 175.5587463378906 163.5056762695313 L 175.5587463378906 149.9643249511719 C 175.5581512451172 146.4830474853516 174.7322540283203 143.8408508300781 173.0790405273438 142.0373229980469 C 171.4263458251953 140.2332153320313 169.2404327392578 139.3309936523438 166.5226593017578 139.3309936523438 M 166.5226593017578 137.3309936523438 C 169.8121337890625 137.3309936523438 172.5141906738281 138.4598846435547 174.5537872314453 140.6863403320313 C 176.5469055175781 142.8607025146484 177.5580749511719 145.9822998046875 177.5587463378906 149.9639739990234 L 177.5587463378906 163.5056762695313 L 177.5587463378906 165.5056762695313 L 175.5587463378906 165.5056762695313 L 167.7147369384766 165.5056762695313 L 165.7147369384766 165.5056762695313 L 165.7147369384766 163.5056762695313 L 165.7147369384766 150.8697204589844 C 165.7147369384766 149.6349182128906 165.5007476806641 148.6678161621094 165.0959167480469 148.0729827880859 C 164.975830078125 147.8966064453125 164.7256622314453 147.5291290283203 163.7332305908203 147.5291290283203 C 163.0229187011719 147.5291290283203 162.6768646240234 147.7434539794922 162.4783630371094 147.9046478271484 C 162.0736999511719 148.2328033447266 161.7767181396484 148.6270294189453 161.5706024169922 149.1094207763672 C 161.5248260498047 149.2489624023438 161.4413299560547 149.6023406982422 161.4413299560547 150.3215789794922 L 161.4413299560547 163.5064239501953 L 161.4413299560547 165.5064239501953 L 159.4413299560547 165.5064239501953 L 151.5973358154297 165.5064239501953 L 149.5872344970703 165.5064239501953 L 149.5973663330078 163.4963684082031 C 149.6290283203125 157.2011566162109 149.6450958251953 152.0145568847656 149.6450958251953 148.0806427001953 C 149.6450958251953 144.1666564941406 149.6371459960938 141.8065185546875 149.6215057373047 141.0657958984375 L 149.5974426269531 139.9209899902344 L 149.5545349121094 137.8789672851563 L 151.5970001220703 137.8789672851563 L 159.4413452148438 137.8789672851563 L 161.4413452148438 137.8789672851563 L 161.4413452148438 138.5279541015625 C 161.978759765625 138.2277374267578 162.5722351074219 137.9792938232422 163.2159271240234 137.7855529785156 C 164.2175750732422 137.4839477539063 165.3302001953125 137.3309936523438 166.5226593017578 137.3309936523438 Z"/></g><g class="b"><path class="c" d="M 4.386763095855713 18.86173629760742 L 4.339083194732666 18.86173629760742 C 2.770853042602539 18.86173629760742 1.476532936096191 18.37249565124512 0.4921029806137085 17.40761566162109 C -0.4979270398616791 16.43766593933105 -0.9999970197677612 15.21877670288086 -0.9999970197677612 13.78494644165039 C -0.9999970197677612 12.32750606536865 -0.4810870289802551 11.09994602203369 0.5423129796981812 10.13635635375977 C 1.549292922019958 9.188526153564453 2.858783006668091 8.707996368408203 4.43453311920166 8.707996368408203 C 6.017083168029785 8.707996368408203 7.318283081054688 9.192086219787598 8.301973342895508 10.14682674407959 C 9.290633201599121 11.1060962677002 9.801862716674805 12.32563591003418 9.821372985839844 13.77145671844482 C 9.841023445129395 15.21628665924072 9.331433296203613 16.44319725036621 8.30677318572998 17.41797637939453 C 7.300353050231934 18.37592697143555 5.981412887573242 18.86173629760742 4.386763095855713 18.86173629760742 Z"/><path class="e" d="M 4.43453311920166 9.707996368408203 C 3.115432739257813 9.707996368408203 2.046612739562988 10.09372711181641 1.227822780609131 10.86442565917969 C 0.4091033935546875 11.63528633117676 2.86102294921875e-06 12.60848617553711 2.86102294921875e-06 13.78494644165039 C 2.86102294921875e-06 14.94496631622314 0.3973331451416016 15.91482639312744 1.192072868347168 16.69345664978027 C 1.986572742462158 17.47216606140137 3.035772800445557 17.86173629760742 4.339083194732666 17.86173629760742 L 4.386763095855713 17.86173629760742 C 5.722063064575195 17.86173629760742 6.799062728881836 17.47249603271484 7.617523193359375 16.69345664978027 C 8.435993194580078 15.91482639312744 8.83724308013916 14.94529628753662 8.821462631225586 13.78494644165039 C 8.80559253692627 12.60856628417969 8.399992942810059 11.63528633117676 7.605503082275391 10.86442565917969 C 6.811092853546143 10.09338569641113 5.75371265411377 9.707996368408203 4.43453311920166 9.707996368408203 M 4.43453311920166 7.707996368408203 C 6.286162853240967 7.707996368408203 7.821682929992676 8.287117004394531 8.998453140258789 9.429256439208984 C 10.16798305511475 10.56400680541992 10.79838275909424 12.06092643737793 10.8212833404541 13.75796604156494 C 10.84454345703125 15.468186378479 10.21338272094727 16.98440551757813 8.99603271484375 18.14249610900879 C 7.797633171081543 19.28317642211914 6.246723175048828 19.86173629760742 4.386763095855713 19.86173629760742 L 4.339083194732666 19.86173629760742 C 2.499893188476563 19.86173629760742 0.9700727462768555 19.27633666992188 -0.2078771591186523 18.12179565429688 C -1.380187034606934 16.97323608398438 -1.999997138977051 15.47348594665527 -1.999997138977051 13.78494644165039 C -1.999997138977051 12.06543636322021 -1.357927322387695 10.55201721191406 -0.1431865692138672 9.408296585083008 C 1.05551290512085 8.279985427856445 2.5956130027771 7.707996368408203 4.43453311920166 7.707996368408203 Z"/></g></g></svg>